<svg width="158" height="38" viewBox="0 0 158 38" fill="none" xmlns="http://www.w3.org/2000/svg">
<path d="M86.1259 13.9222C84.2361 13.9222 82.757 15.0538 81.9622 16.9491C81.3598 15.0256 79.8807 13.9222 78.0452 13.9222C76.1825 13.9222 74.8951 15.0538 74.2101 16.8924V14.3467H71.3067V28.5757H74.2101V20.0606C74.2101 17.8825 75.2786 16.355 77.0044 16.355C78.6204 16.355 79.4423 17.4863 79.4423 19.6646V28.5757H82.3186V19.8345C82.3186 17.7978 83.3871 16.355 85.14 16.355C86.756 16.355 87.523 17.4863 87.523 19.7495V28.5757H90.3993V19.2121C90.3993 15.9024 88.7284 13.9222 86.1259 13.9222ZM56.3503 13.9222C52.1592 13.9222 49.4749 17.0056 49.4749 21.362C49.4749 25.9732 52.5154 29 56.8984 29C59.09 29 60.8978 28.2079 62.0206 27.0764V25.2375C60.9521 26.2843 59.336 26.8782 57.6927 26.8782C54.7069 26.8782 52.625 25.0112 52.5154 21.3905H62.4318V20.4566C62.4318 16.3268 60.0487 13.9222 56.3503 13.9222ZM52.5977 19.6646C52.9536 17.4017 54.1864 15.846 56.2957 15.846C58.1856 15.846 59.5006 17.1471 59.5555 19.6646H52.5977ZM26.8213 13.9222C22.8493 13.9222 19.9457 17.2038 19.9457 21.4754C19.9457 25.7468 22.8493 29 26.8213 29C30.8478 29 33.7514 25.7468 33.7514 21.4754C33.7514 17.2038 30.8478 13.9222 26.8213 13.9222ZM26.8213 27.02C24.4652 27.02 23.0408 24.8415 23.0408 21.4754C23.0408 18.0806 24.4652 15.9024 26.8213 15.9024C29.2317 15.9024 30.6562 18.0806 30.6562 21.4754C30.6562 24.8415 29.2317 27.02 26.8213 27.02V27.02ZM42.9281 13.9222C40.6543 13.9222 39.1479 15.2236 38.3809 17.1753V14.3467H35.5046V28.5757H38.3809V20.7398C38.3809 18.0806 39.6684 16.3831 41.9146 16.3831C43.969 16.3831 44.8454 17.6563 44.8454 20.3153V28.5757H47.7216V19.6931C47.7216 16.0439 45.8317 13.9222 42.9281 13.9222V13.9222ZM117.204 17.0056C116.327 15.0538 114.766 13.9222 112.685 13.9222C109.151 13.9222 106.357 17.2038 106.357 21.5883C106.357 25.8882 108.959 29 112.41 29C114.794 29 116.465 27.5572 117.204 25.6337V28.5757H120.081V9.25469H117.204V17.0056ZM113.259 26.8218C110.958 26.8218 109.452 24.7285 109.452 21.5319C109.452 18.2785 110.986 16.0721 113.369 16.0721C115.78 16.0721 117.259 18.2503 117.259 21.3905C117.259 24.5869 115.643 26.8218 113.259 26.8218V26.8218ZM135.131 26.8782C132.063 26.8782 130.393 24.5019 130.393 21.4185C130.393 18.2503 132.201 16.0721 135.049 16.0721C136.583 16.0721 137.871 16.666 138.994 18.0524V15.8175C137.98 14.6578 136.446 13.9222 134.446 13.9222C130.256 13.9222 127.297 17.2038 127.297 21.4754C127.297 25.7186 130.256 29 134.419 29C136.173 29 137.761 28.4058 139.158 26.9629V25.0112C138.199 26.1711 136.665 26.8782 135.131 26.8782ZM99.0282 13.9222C94.8374 13.9222 92.1251 17.0056 92.1251 21.362C92.1251 25.9732 95.1931 29 99.5757 29C101.768 29 103.575 28.2079 104.671 27.0764V25.2375C103.63 26.2843 101.986 26.8782 100.343 26.8782C97.3844 26.8782 95.3029 25.0112 95.1654 21.3905H105.109V20.4566C105.109 16.3268 102.726 13.9222 99.0282 13.9222V13.9222ZM95.2752 19.6646C95.6044 17.4017 96.8641 15.846 98.9456 15.846C100.864 15.846 102.178 17.1471 102.233 19.6646H95.2752ZM146.27 13.9222C143.996 13.9222 142.408 14.7425 141.202 15.8175V18.0524C142.38 16.6946 143.832 16.0439 145.503 16.0439C147.694 16.0439 149.064 17.2885 149.064 19.8345V20.4002H146.461C142.38 20.4002 140.38 22.1541 140.38 24.6718C140.38 27.1046 142.216 28.9432 144.818 28.9432C146.927 28.9432 148.352 27.84 149.064 26.2558V28.5757H151.94V19.7213C151.94 16.0439 149.886 13.9222 146.27 13.9222V13.9222ZM149.064 23.2291C149.064 25.4922 147.804 26.8782 145.804 26.8782C144.188 26.8782 143.311 25.9732 143.311 24.5869C143.311 23.0312 144.352 22.0691 146.653 22.0691H149.064V23.2291ZM124.092 9.00012C123.141 9.00012 122.37 9.79627 122.37 10.7787C122.37 11.761 123.141 12.5574 124.092 12.5574C125.044 12.5574 125.815 11.761 125.815 10.7787C125.815 9.79627 125.044 9.00012 124.092 9.00012ZM122.668 28.5757H125.544V14.3467H122.668V28.5757ZM154.46 28.5757H157.364V9.25469H154.46V28.5757ZM2.72262 19.6824C1.77119 19.6824 1 20.4788 1 21.4611C1 22.4436 1.77119 23.2397 2.72262 23.2397C3.67373 23.2397 4.44472 22.4436 4.44472 21.4611C4.44472 20.4788 3.67373 19.6824 2.72262 19.6824ZM7.88934 19.6824C6.9382 19.6824 6.16702 20.4788 6.16702 21.4611C6.16702 22.4433 6.9382 23.2397 7.88934 23.2397C8.84071 23.2397 9.6117 22.4433 9.6117 21.4611C9.6117 20.4788 8.84071 19.6824 7.88934 19.6824ZM7.88934 25.0184C6.9382 25.0184 6.16702 25.8145 6.16702 26.7971C6.16702 27.7793 6.9382 28.5757 7.88934 28.5757C8.84071 28.5757 9.6117 27.7793 9.6117 26.7971C9.6117 25.8145 8.84071 25.0184 7.88934 25.0184ZM7.88934 14.3467C6.9382 14.3467 6.16702 15.1428 6.16702 16.1251C6.16702 17.1076 6.9382 17.9037 7.88934 17.9037C8.84071 17.9037 9.6117 17.1076 9.6117 16.1251C9.6117 15.1428 8.84071 14.3467 7.88934 14.3467ZM13.0563 19.6824C12.1052 19.6824 11.334 20.4788 11.334 21.4611C11.334 22.4436 12.1052 23.2397 13.0563 23.2397C14.0077 23.2397 14.7786 22.4436 14.7786 21.4611C14.7786 20.4788 14.0077 19.6824 13.0563 19.6824Z" fill="#59667F"/>
</svg>
