<svg width="162" height="38" viewBox="0 0 162 38" fill="none" xmlns="http://www.w3.org/2000/svg">
<path fill-rule="evenodd" clip-rule="evenodd" d="M153.28 14.7786C154.103 13.9264 155.349 13.5448 156.572 13.5446C159.489 13.5446 161.346 15.4738 161.346 18.3678V24.9403H158.759V18.4124C158.759 17.2011 157.818 15.8999 156.078 15.8999C154.762 15.8999 153.75 16.5513 153.28 17.8744V24.9403H150.694V10.2266L153.264 9.02778L153.28 9.01316V14.7786ZM141.441 13.7245H139.701V15.9226H141.441V21.5301C141.441 23.661 142.781 24.9403 145.039 24.9403H147.319V22.6741H145.697C144.357 22.6741 144.027 22.1588 144.027 21.0148V15.9226H147.037L147.039 13.7245H144.027V10.3597L141.441 11.5709V13.7245ZM134.233 24.9403V10.2266L136.82 9.02047V24.9403H134.233ZM124.71 25.1939C125.956 25.1939 127.038 24.835 127.861 24.2071V24.2078V25.0148H130.447V13.6199H127.861V14.628C127.038 14.0008 125.956 13.6192 124.71 13.6192C121.229 13.6192 118.667 16.1317 118.667 19.4066C118.667 22.6815 121.229 25.1939 124.71 25.1939ZM124.734 15.9745C126.027 15.9745 127.226 16.5805 127.861 17.4994H127.86V21.313C127.226 22.2326 126.027 22.8386 124.734 22.8386C122.734 22.8386 121.324 21.3583 121.324 19.4066C121.324 17.4548 122.734 15.9745 124.734 15.9745ZM110.684 13.5446C107.251 13.5446 104.665 16.0571 104.665 19.332C104.665 22.6069 107.251 25.1193 110.731 25.1193C112.8 25.1193 114.516 24.2897 115.528 23.1676L113.788 21.3956C113.008 22.2195 111.895 22.685 110.731 22.6741C108.968 22.6741 107.604 21.5981 107.345 20.0045H116.304V19.332C116.14 15.7435 113.953 13.5446 110.684 13.5446ZM113.459 18.0981H107.416C107.839 16.6858 109.109 15.81 110.496 15.81C112.048 15.81 113.153 16.5732 113.459 18.0981ZM99.2093 10.2719L101.937 9H101.937V25.1749H99.2093V18.1076H90.9323V25.1749H88.2042V10.2719L90.9315 9H90.9323V15.5936H99.2093V10.2719ZM66.8548 13.6569L71.4871 24.2894L69.3706 28.9999H72.0987L78.8239 13.6569H76.0498L72.8274 21.3953L69.6296 13.6569H66.8548ZM59.9886 13.6343C56.5555 13.6343 53.9692 16.1467 53.9692 19.4216C53.9692 22.6965 56.5562 25.209 60.0353 25.209C62.1051 25.209 63.8217 24.3793 64.8325 23.2572L63.0929 21.4852C62.4814 22.1351 61.4461 22.7638 60.0361 22.7638C58.272 22.7638 56.908 21.6877 56.6497 20.0941H65.6087V19.4216C65.4447 15.8324 63.2577 13.6343 59.9886 13.6343ZM62.7634 18.1877H56.7202C57.1432 16.7747 58.4138 15.8996 59.8008 15.8996C61.3534 15.8996 62.4576 16.6621 62.7634 18.1877ZM48.208 25.1629V10.3089L50.7943 9.10205V25.1629H48.208ZM38.6145 21.5751L36.6389 22.9209C37.603 24.4911 39.1547 25.209 41.0131 25.209C43.5059 25.209 45.2224 23.8405 45.2224 21.8668C45.2224 20.1168 44.1166 19.1299 42.1418 18.3902L41.2951 18.0978C40.19 17.6723 39.79 17.3127 39.79 16.7301C39.79 16.1694 40.4015 15.8331 41.0836 15.8331C41.8361 15.8331 42.4001 16.1467 42.8001 16.8419L44.7044 15.586C43.8346 14.1949 42.5411 13.6343 41.036 13.6343C38.8498 13.6343 37.2505 14.98 37.2505 16.7973C37.2505 18.3222 38.1202 19.5115 40.1195 20.2513L40.9426 20.5656C42.0238 20.9472 42.5181 21.3281 42.5181 21.9787C42.5181 22.5847 41.9066 23.0108 41.0131 23.0108C39.8368 23.0108 39.1785 22.4947 38.6145 21.5751ZM30.9965 13.6343H28.4095V25.0291H30.9965V17.4925C31.5138 16.5502 32.4778 16.1467 33.5829 16.1467C34.0764 16.1467 34.5239 16.1913 34.8764 16.3039V13.7242C34.6174 13.6789 34.3354 13.6562 34.0296 13.6562C32.7591 13.6562 31.7483 14.0604 30.9965 14.9135V13.6343ZM19.1455 25.209C20.3915 25.209 21.4735 24.85 22.2966 24.2221V24.2228V25.0299H24.8829V13.6189H22.2966V14.643C21.4735 14.0158 20.3915 13.6343 19.1455 13.6343C15.6649 13.6343 13.1015 16.1467 13.1015 19.4216C13.1015 22.6965 15.6649 25.209 19.1455 25.209ZM19.1685 15.9896C20.462 15.9896 21.6613 16.5956 22.2966 17.5144V21.3281C21.6613 22.2477 20.462 22.8537 19.1685 22.8537C17.1699 22.8537 15.7584 21.3734 15.7584 19.4216C15.7584 17.4698 17.1699 15.9896 19.1685 15.9896ZM6.33038 9.10278H1.34473V25.0299H4.07281V19.2418H6.33038C9.78646 19.2418 12.162 17.1328 12.162 14.1723C12.162 11.1671 9.78646 9.10278 6.33038 9.10278ZM9.38721 14.173C9.38721 15.7651 8.21168 16.8192 6.21236 16.8192H4.07281V11.5261H6.21236C8.21168 11.5261 9.38721 12.5794 9.38721 14.173Z" fill="#59667F"/>
</svg>
