<svg width="138" height="38" viewBox="0 0 138 38" fill="none" xmlns="http://www.w3.org/2000/svg">
<path d="M25.941 2.43536H1.50662L0.521394 13.7386L0.436768 17.3066L7.87493 30.7754L15.6476 37.8928L23.9745 30.3187L27.5098 17.6529L25.941 2.43536" fill="url(#paint0_linear_20_2964)"/>
<path d="M15.2805 1.87805V17.3065H0.436768L0.503079 17.6736H15.2805V36.116V37.8928L15.4634 38L15.6476 37.8928V36.116V1.87805H15.2805Z" fill="#8F8F8F"/>
<path d="M7.82427 4.71849L7.83164 5.14715C8.11819 4.91541 8.53643 4.73189 8.86989 4.66483C8.68603 5.49032 8.27929 5.6992 7.8358 5.77422L7.8197 6.46955C8.1808 6.18019 8.72501 5.79029 9.14034 5.70463C8.90475 6.75643 8.3982 7.13821 7.8358 7.21734V7.90207C8.28477 7.61241 8.9922 7.10473 9.51237 7.02043C9.21489 8.08427 8.55386 8.50631 7.8383 8.57205L7.84038 9.20297C8.28874 8.91225 8.9922 8.45929 9.51237 8.37763C9.22643 9.40535 8.53038 10.0298 7.84155 10.1248V10.658C8.29332 10.3701 8.9922 9.91581 9.51237 9.83268C9.23989 10.9113 8.55253 11.4928 7.8358 11.5544V11.9912C8.37529 11.6709 9.25981 11.1163 9.88289 11.0251C9.52711 12.1815 8.68883 12.8099 7.8358 12.8889V13.3886C8.12481 13.1571 8.73299 12.9063 9.0665 12.842C8.8888 13.6285 8.25388 13.9004 7.83164 14.005L7.8296 14.9376L8.12836 14.9055C8.09883 14.5812 8.28874 14.2489 8.71099 13.9809C8.72902 14.2289 8.58754 14.5921 8.50557 14.8357C8.73299 14.7835 8.95852 14.722 9.18359 14.6267C9.06264 14.1538 9.22038 13.5052 9.76326 12.956C9.86474 13.3217 9.76859 13.918 9.72179 14.3133C9.96058 14.1671 10.2022 14.0092 10.4353 13.8067C10.1734 13.3578 10.2218 12.6612 10.7286 11.963C10.8783 12.3061 10.885 12.9692 10.8897 13.3672C11.0963 13.1489 11.3186 12.9037 11.5144 12.637C11.1574 12.2017 11.144 11.7822 11.5723 10.9341C11.7207 11.277 11.8554 11.7914 11.8615 12.1922C12.0468 11.9537 12.1778 11.7555 12.336 11.4701C12.2415 11.2503 12.2858 11.084 12.3983 10.9422C12.5569 10.745 12.7925 10.5764 13.0044 10.7049C13.2992 10.839 13.1508 11.163 13.0482 11.3989C12.9743 11.5665 12.8488 11.6803 12.6287 11.6737C12.4776 11.9431 12.2636 12.2378 12.0783 12.4736C12.5066 12.6089 12.8107 12.7095 13.0991 13.004C12.4658 13.2655 12.0879 13.2038 11.7735 12.9412C11.5689 13.2119 11.2694 13.508 11.0555 13.7318C11.4722 13.859 11.746 13.9754 12.0857 14.3199C11.3955 14.6053 10.885 14.5169 10.5781 14.1914C10.3379 14.3963 10.1075 14.6093 9.86001 14.7552C10.2686 14.9631 10.5654 15.1828 10.8117 15.5206C10.0263 15.7013 9.50821 15.4776 9.27943 15.0382C9.04461 15.1319 8.82781 15.2111 8.59284 15.2565C8.81643 15.4481 8.96872 15.5955 9.082 15.8474C8.54293 15.834 8.23634 15.708 8.15717 15.3772L7.83164 15.4588V16.5093L7.16913 16.2158V15.4454L6.87982 15.3732C6.78455 15.6866 6.54824 15.8085 6.03148 15.8179C6.14283 15.5633 6.20604 15.3823 6.46775 15.2486C6.2282 15.1869 6.00403 15.0716 5.76905 14.9631C5.56376 15.4522 5.09853 15.6558 4.27015 15.4656C4.5131 15.1266 4.81999 14.8212 5.23471 14.6802C5.02336 14.5465 4.8265 14.4165 4.61723 14.2141C4.31578 14.553 3.79978 14.6683 3.095 14.3749C3.38344 14.0815 3.67025 13.8471 4.10916 13.7638C3.88825 13.5456 3.68428 13.2803 3.47353 13.0136C3.15998 13.2911 2.6834 13.3807 2.03711 13.1087C2.32717 12.8152 2.65799 12.5046 3.07285 12.5084C2.94598 12.3277 2.83374 12.1214 2.70156 11.9122C2.56406 11.9095 2.44517 11.9122 2.30428 11.734C2.15172 11.541 2.00551 11.1177 2.26204 10.985C2.41903 10.8482 2.78486 11.0479 2.90567 11.2678C3.01628 11.4701 2.97685 11.5894 2.93653 11.7315C3.06546 11.9322 3.21108 12.1333 3.34134 12.3127C3.25126 11.7326 3.41637 11.2531 3.56805 10.9113C4.08761 11.6321 3.99029 12.2551 3.70097 12.7001C3.91778 12.9667 4.09823 13.1665 4.31314 13.3833C4.25257 12.9774 4.30104 12.3625 4.4508 12.0168C4.93535 12.6865 5.00181 13.3714 4.77954 13.8214C4.98363 13.9917 5.1749 14.1551 5.37562 14.2825C5.26556 13.9004 5.21596 13.2655 5.31728 12.8998C5.86577 13.457 6.03413 14.0856 5.90728 14.5611C6.14018 14.6683 6.36688 14.7594 6.60068 14.8145C6.48991 14.5878 6.38181 14.1994 6.40128 13.9529C6.81335 14.2155 6.91672 14.5181 6.90122 14.8384L7.20206 14.9255L7.18788 14.005C6.78247 13.9004 6.17164 13.6674 5.97227 12.8863C6.35168 12.9746 6.83491 13.0658 7.18788 13.378V12.8903C6.36779 12.8248 5.54221 12.2431 5.13471 11.0855C5.84539 11.2086 6.53214 11.5463 7.18788 11.9739V11.5463C6.47232 11.4941 5.79518 10.8309 5.49525 9.8903C6.08789 10.0003 6.63895 10.2681 7.18788 10.658V10.1207C6.51811 10.0473 5.82754 9.47773 5.49525 8.43261C6.08789 8.54507 6.63895 8.79832 7.18788 9.18969V8.5853C6.49524 8.53695 5.8401 8.15121 5.49525 7.0779C6.08789 7.18787 6.63895 7.49863 7.18788 7.89V7.21734C6.64292 7.1556 6.12733 6.82069 5.85484 5.76229C6.33013 5.87358 6.74969 6.07569 7.18788 6.46706V5.7704C6.76772 5.6952 6.37913 5.52761 6.16986 4.70906C6.45565 4.7748 6.80273 4.79087 7.19068 5.13654L7.18331 4.71849C6.86579 4.24547 6.9368 4.03776 6.97506 3.66391C7.00947 3.32371 7.13692 3.07193 7.50351 3.05438C7.8699 3.07193 7.99618 3.32371 8.03369 3.66391C8.07312 4.03776 8.14167 4.24547 7.82427 4.71849Z" fill="white"/>
<path d="M23.1059 18.5872C23.1256 17.1212 23.1584 15.9102 23.2053 14.8932C24.0705 15.7225 24.7088 16.5036 24.5939 17.2056C24.5094 17.719 24.0107 18.1704 23.1059 18.5872ZM23.0683 13.0159C22.7019 12.6608 22.2965 12.2804 21.8596 11.8771L21.8546 8.07306L22.0486 7.98344L22.3408 8.12673L22.7212 8.73228L22.8394 8.69485L22.8159 8.31024L23.1167 8.24876L23.1175 8.86112L23.3609 8.91727C23.492 8.65341 23.8463 8.16431 24.1864 8.01291L24.3678 9.20795C23.7005 9.78139 23.2945 10.5224 23.0683 13.0159V13.0159ZM22.8274 23.1649C22.6488 23.0897 22.479 23.0175 22.3173 22.9448C22.0711 15.8458 21.5213 15.0805 21.036 14.7536L21.2696 14.2151L21.8636 14.6184L21.8622 13.6699L22.191 13.9658C22.4543 14.2004 22.7106 14.4321 22.9569 14.6602C22.8596 16.6187 22.8225 19.3319 22.8274 23.1649ZM22.6657 29.1968L22.4368 29.0361L22.4354 29.001C22.4326 28.6609 22.4301 28.334 22.426 28.0124C22.6945 28.0738 22.8475 28.1276 22.8436 28.4841V28.9502L22.8575 28.945L22.8581 29.0334C22.8246 29.1834 22.7025 29.1968 22.6657 29.1968V29.1968ZM22.3535 24.1295C22.5193 24.1992 22.6777 24.2689 22.8307 24.3412C22.8321 24.8129 22.834 25.2978 22.8369 25.8015L22.8307 25.804V26.7262H22.8422C22.8429 26.9111 22.8442 27.0958 22.8454 27.2864C22.716 27.2299 22.4724 27.0852 22.4112 26.8894C22.3957 25.8844 22.3762 24.9709 22.3535 24.1295V24.1295ZM20.793 21.8407C20.7553 21.522 21.1085 21.1091 21.9509 20.4823C21.9903 21.1712 22.026 21.9509 22.0568 22.8273C21.3245 22.4841 20.8332 22.1654 20.793 21.8407ZM23.116 7.0455L23.1167 8.10669L22.4724 7.93657L22.1823 7.7877C22.2213 7.57468 22.063 7.29871 21.8528 7.0415L21.8521 6.2993L23.116 7.0455ZM23.9562 25.1932C23.9516 25.2978 23.8208 25.499 23.0904 25.7268C23.0884 25.2952 23.0872 24.8717 23.0857 24.4645C23.5986 24.7218 23.9671 24.979 23.9562 25.1932ZM21.0668 11.1496C18.6458 8.96017 18.5437 7.96193 18.698 7.56128C18.8398 7.19422 19.2647 7.09633 19.4922 7.09633L19.6243 7.10992L19.7296 7.23992C19.7688 7.39249 19.825 7.62702 20.2903 7.77985C20.8621 7.96869 21.291 8.0691 21.5977 8.08397L21.6023 11.6414C21.4224 11.4764 21.2575 11.3222 21.0668 11.1496V11.1496ZM20.1977 7.25599L20.4433 7.21426L20.5472 7.43951L20.413 7.51173L20.3003 7.48374L20.1888 7.35769L20.1977 7.25599ZM20.5883 6.50006L20.832 6.52425L20.9051 6.66783L20.8714 6.76821L20.7714 6.80965L20.6239 6.74535L20.5514 6.59662L20.5883 6.50006ZM23.3086 13.2465C23.5288 10.6297 23.928 9.9046 24.5865 9.35535L24.6424 9.30969L24.3967 7.70204L24.2699 7.7234C23.9181 7.78106 23.5926 8.11892 23.3737 8.41624L23.3711 6.89806L21.5958 5.85046L21.597 6.75478C21.4077 6.56463 21.2297 6.41443 21.1615 6.36357C20.9606 6.21617 20.7828 6.14775 20.6037 6.14775L20.3211 6.19198C20.1808 6.22809 20.0848 6.25892 19.8807 6.17194C18.9868 5.99092 18.2962 6.18919 17.9129 6.72784C17.5543 7.23445 17.4953 8.01571 17.7611 8.76708C17.9792 9.37705 18.3873 9.99849 18.6914 10.4113C18.868 10.6537 20.4238 12.291 20.7828 12.6583C21.0426 12.9209 21.3219 13.1806 21.6044 13.4378L21.6052 14.1335L21.1566 13.8292L20.7131 14.8529L20.807 14.9119C21.2009 15.1557 21.5915 15.7922 21.8574 19.1136C20.895 19.4659 19.6017 20.6165 19.5666 21.806C19.5512 22.3556 19.8131 23.1216 21.1688 23.6523C21.4614 23.7651 21.7803 23.8882 22.095 24.0169C22.1113 24.6227 22.126 25.2708 22.1387 25.9597C21.895 26.0506 21.3346 26.3455 21.2359 26.7958C21.1566 27.1522 21.3762 27.5004 21.8869 27.8273L22.1675 27.9453C22.1696 28.122 22.1709 28.3045 22.1728 28.4841C21.8763 28.6234 21.767 28.6929 21.5845 28.8993L21.4582 29.2209L21.6152 29.3147C21.6858 29.3147 21.7877 29.2826 21.9776 29.2049L22.2033 29.1326C22.2857 29.3253 22.4642 29.4539 22.6657 29.4539C22.8831 29.4539 23.0603 29.3039 23.1112 29.0573L23.1098 28.843C23.3523 28.7224 23.5066 28.508 23.5167 28.24C23.5295 27.9345 23.3669 27.6372 23.0999 27.439C23.0986 27.1791 23.0971 26.9296 23.0953 26.6779C23.9965 26.4955 24.9565 25.914 25.043 25.1316C25.0955 24.6654 24.8436 23.9793 23.3502 23.3764L23.083 23.2695C23.0817 22.0445 23.0851 20.9378 23.0925 19.9295C24.6948 19.1284 25.7874 18.3834 25.9262 17.3825C26.0686 16.3415 25.2021 15.1102 23.3086 13.2465" fill="white"/>
<path d="M12.555 26.9081H11.5994V24.4696H12.555V26.9081ZM12.5276 28.6044H10.0842V27.6478H12.5276V28.6044ZM9.3694 28.6283H8.41448V26.1928H9.3694V28.6283ZM8.38628 24.4966H10.83V25.4502H8.38628V24.4966ZM8.30782 22.9075H9.04864V23.6497H8.30782V22.9075ZM7.56349 25.4502H6.60823V23.0118H7.56349V25.4502ZM6.63557 21.104H9.07816V22.0605H6.63557V21.104ZM10.855 26.1928V26.9351H10.112V26.1928H10.855ZM9.87361 21.104H10.83V23.5451H9.87361V21.104ZM11.6014 23.6497L11.5994 20.3643H5.7605V26.1928H7.56349V29.4783H13.4021V23.6497H11.6014Z" fill="#59667F"/>
<path fill-rule="evenodd" clip-rule="evenodd" d="M97.9453 25.7938C99.2474 25.7938 100.335 26.4343 101.011 27.1593L99.9401 28.3452C99.3952 27.8012 98.7854 27.4551 97.9616 27.4551C96.1815 27.4551 94.9275 28.9373 94.9275 31.3556C94.9275 33.8062 96.0821 35.2881 97.8958 35.2881C98.8512 35.2881 99.5438 34.8929 100.153 34.219L101.226 35.3876C100.352 36.391 99.2138 36.9497 97.8621 36.9497C95.1089 36.9497 92.9663 34.9747 92.9663 31.4052C92.9663 27.8841 95.1747 25.7938 97.9453 25.7938ZM40.9047 25.9912H43.0152L44.9616 31.2901L45.6705 33.3295H45.7362L46.4289 31.2901L48.3405 25.9912H50.4509V36.7527H48.6547V31.833C48.6547 30.8699 48.7907 29.5141 48.8892 28.5324V28.5324L48.8892 28.5323L48.8893 28.5323L48.8893 28.5322L48.9015 28.4097H48.8358L47.9616 30.8614L46.0988 35.7492H45.2088L43.3453 30.8614L42.4874 28.4097H42.4216L42.4315 28.5085C42.5306 29.492 42.6685 30.8621 42.6685 31.833V36.7527H40.9047V25.9912ZM103.924 9.16481C104.375 8.77491 104.992 8.57796 105.755 8.57796C108.942 8.57796 109.103 12.9219 109.103 13.7927C109.103 16.0464 108.577 17.6313 107.541 18.501C107.084 18.8883 106.464 19.0879 105.704 19.0879C102.517 19.0879 102.356 14.7426 102.356 13.8718C102.356 11.6196 102.882 10.0344 103.924 9.16481ZM99.2822 14.0098C99.2822 18.1232 101.642 20.5804 105.591 20.5804C110.454 20.5804 112.177 16.8504 112.177 13.6547C112.177 9.54277 109.817 7.08545 105.865 7.08545C101.005 7.08545 99.2822 10.8155 99.2822 14.0098ZM56.9468 20.5256C54.9437 20.5256 53.8352 19.8118 53.3421 18.217C53.138 17.582 53.138 16.3318 53.138 15.583C53.138 13.5435 53.1564 11.9014 53.1776 10.0125L53.1776 10.0123L53.1784 9.9421L53.1894 9.04156H51.4805V8.53389L51.6468 8.46551C52.4431 8.13735 52.7463 7.91347 53.0979 7.64282C54.3087 6.70542 55.1601 5.13859 55.2175 5.03286L55.2205 5.02749L55.5116 4.53442H56.0753V7.43923H60.4852V9.04156H56.0753V15.8269C56.0753 17.8528 56.4541 19.0103 58.3778 19.0103C59.2705 19.0103 59.9578 18.6645 59.9631 18.6592L60.2289 18.5227L60.4558 19.0478L60.3442 19.1737L60.3357 19.1837C60.2258 19.3154 59.2164 20.5256 56.9468 20.5256ZM65.7891 14.7551C66.3233 14.4856 66.9086 14.1976 68.6338 13.6803V18.0589C67.9411 18.5548 67.1479 18.6566 66.5921 18.6566C64.91 18.6566 64.6605 17.4843 64.6605 16.7849C64.6605 15.8911 65.0469 15.1301 65.7891 14.7551ZM61.75 17.0019C61.75 17.8179 62.0211 20.4774 65.5301 20.4774C67.1585 20.4774 68.199 19.7367 68.7706 19.1416C69.0122 19.9618 69.7253 20.4493 70.7548 20.4493C71.9442 20.4493 72.6116 19.8546 73.3118 19.0104L73.4543 18.8282L73.0274 18.3431L72.8184 18.52C72.7133 18.6085 72.5843 18.6485 72.3953 18.6485C71.6327 18.6485 71.4879 17.9413 71.4879 17.0275C71.4879 16.6656 71.5011 16.0708 71.5174 15.3848C71.5416 14.3852 71.5684 13.1458 71.5684 12.0337C71.5684 10.7677 71.5253 9.55633 70.9828 8.68013C70.2538 7.57609 69.0784 7.06427 67.2727 7.06427C64.4938 7.06427 63.2226 8.77376 62.9054 9.77894L62.8412 9.97853L63.4911 10.3643L63.6306 10.1031C63.6363 10.0897 64.3542 8.75519 66.1059 8.75519C67.2969 8.75519 68.1748 9.32859 68.4806 10.2424C68.6338 10.7179 68.6338 10.9054 68.6338 11.6733V12.0833C68.2241 12.2119 67.8872 12.3138 67.5732 12.4088L67.5732 12.4088L67.5731 12.4089C66.6701 12.6821 65.9562 12.8981 64.2438 13.5263C62.0075 14.3477 61.75 16.0427 61.75 17.0019ZM39.8174 19.833C41.1305 20.2602 42.4095 20.4442 44.089 20.4442C45.9696 20.4442 50.3447 19.9374 50.3447 15.2559C50.3447 12.4905 48.77 11.4401 47.0989 10.3279L45.1374 9.03099L45.1354 9.02965C43.4282 7.90381 42.6458 7.38783 42.6458 5.86498C42.6458 4.75957 42.9816 3.28314 45.8573 3.28314C47.08 3.28314 48.2346 3.52695 48.7568 4.04949C49.1352 4.42863 49.3364 4.92305 49.3852 5.61159L49.401 5.86498H50.0585L50.0373 5.46034C50.0213 5.05538 50.0231 4.6603 50.025 4.23529V4.23525V4.23522V4.23518V4.23515V4.23512V4.23508V4.23505V4.23501V4.23498V4.23494V4.23491V4.23487V4.23484V4.23481C50.0257 4.09034 50.0264 3.94242 50.0264 3.78949C50.0264 3.08905 50.0422 2.43898 50.0449 2.3271L50.0453 2.31022L50.0536 2.08116L49.8199 2.03962L49.7996 2.0364C49.5884 2.00259 47.9281 1.73682 45.8036 1.73682C40.3762 1.73682 39.9543 5.37321 39.9543 6.4879C39.9543 8.76581 41.0499 9.90602 43.2031 11.3303L44.7521 12.3591L44.9873 12.52L44.9957 12.5256C46.4572 13.5115 47.5148 14.2249 47.5148 15.9366C47.5148 17.9384 46.3673 18.8709 43.8984 18.8709C42.7211 18.8709 41.4526 18.4958 40.9021 17.874C40.5452 17.4722 40.349 16.8986 40.3168 16.3157L40.301 16.0441L39.5369 16.0426L39.5747 16.6922C39.6015 17.0903 39.6284 17.582 39.6284 18.832V19.7715L39.8174 19.833ZM74.559 19.7495V20.3632L74.8521 20.3337C76.0101 20.2268 76.888 20.2268 77.8242 20.2268C78.6285 20.2268 79.3953 20.2669 80.2761 20.3129L80.3142 20.3149L81.0027 20.3499V19.747L80.749 19.7283C80.3732 19.7038 79.9516 19.5512 79.7478 19.3664C79.3475 18.9927 79.2605 18.3938 79.2605 16.2607V9.47564C79.8064 9.19571 80.5286 8.93171 81.6836 8.93171C83.3668 8.93171 84.2395 9.7087 84.4327 11.3794C84.5374 12.367 84.5374 13.3666 84.5374 14.334V14.3344C84.5374 15.0766 84.5374 16.0919 84.5132 16.5742C84.5052 16.7297 84.4996 16.8796 84.4943 17.0219L84.4911 17.1099V17.11C84.4606 17.9475 84.4263 18.8877 84.0217 19.2928C83.799 19.5136 83.45 19.6561 82.9479 19.7337L82.7143 19.7659V20.3632L83.0148 20.3337C84.1695 20.2268 84.9964 20.2268 85.9522 20.2268C86.7509 20.2268 87.5131 20.2654 88.3842 20.3095L88.3843 20.3095L88.5216 20.3164L89.1632 20.3499V19.747L88.908 19.7283C88.5349 19.7038 88.108 19.5512 87.9069 19.3664C87.5065 18.9927 87.4237 18.3938 87.4237 16.2607V12.4903C87.4237 11.8567 87.3775 10.6682 87.2543 10.1778C86.8195 8.2028 85.2947 7.11346 82.9615 7.11346C81.1759 7.11346 79.8628 7.87185 79.2095 8.35536V7.32924L78.9542 7.17773L78.8068 7.24611C78.7854 7.25603 78.7591 7.26925 78.7278 7.28498L78.7277 7.28506C78.5224 7.38824 78.1017 7.59967 77.4412 7.70441C76.4449 7.89721 75.5012 7.95087 75.1016 7.95087L74.9027 7.94408L74.6105 7.92125V8.66107L74.857 8.68643L74.9643 8.69439L74.9715 8.69491C75.2851 8.71789 75.8632 8.76023 76.1258 9.13809C76.3568 9.4836 76.381 10.1643 76.381 11.7533V15.4459C76.381 17.6473 76.3568 18.7502 75.9564 19.195C75.5742 19.6265 75.0263 19.7121 74.8086 19.7308L74.559 19.7495ZM90.7039 20.3632V19.7364L90.9561 19.7175C91.1765 19.7013 91.7244 19.6158 92.1055 19.1855C92.5082 18.7394 92.5271 17.6473 92.5271 15.4459V9.04134H90.8412V8.31669L91.0102 8.24563C91.7429 7.94404 92.1943 7.70438 92.5271 7.44581C92.5297 6.30017 92.5645 4.82358 92.7203 4.01961C93.2333 1.35331 94.9782 0.00012207 97.9155 0.00012207C99.1749 0.00012207 100.377 0.419487 101.075 0.984928L101.175 1.06527L101.215 1.34003L99.9292 3.12205L99.6203 3.12454L99.5507 2.9639C99.0592 1.86792 98.345 1.43908 97.3703 1.43908C96.965 1.43908 96.4092 1.55969 96.0655 1.90403C95.5048 2.46136 95.4107 3.29349 95.4107 4.94151V7.43902H98.294V9.04134H95.4107V16.207C95.4107 17.9126 95.467 18.7433 95.6897 19.077C96.0523 19.621 97.1529 19.6627 97.4777 19.6627H97.7518V20.3499L97.4644 20.3337C96.0387 20.26 94.9782 20.2268 94.2133 20.2268C93.2522 20.2268 92.1592 20.2268 91.0019 20.3337L90.7039 20.3632ZM113.426 20.3632V19.7094L113.678 19.688C113.898 19.6745 114.452 19.5888 114.83 19.1545C115.233 18.7098 115.249 17.6473 115.249 15.4459V11.7532C115.249 10.1643 115.227 9.48353 114.999 9.13801C114.735 8.75971 114.158 8.7177 113.843 8.69475L113.837 8.69431L113.735 8.68634L113.482 8.66098V7.8784L113.762 7.88372L113.974 7.88901C114.377 7.88901 115.319 7.8395 116.312 7.64534C116.94 7.54085 117.482 7.38002 117.7 7.27684L117.851 7.2099L118.079 7.32915V8.45196C118.699 7.8678 119.682 7.24866 121.073 7.24866C121.977 7.24866 122.707 7.48998 123.239 7.96818L123.327 8.04999V8.45743L122.238 10.4511H121.714L121.634 10.3251C121.33 9.85074 120.724 9.28541 119.547 9.28541C119.01 9.28541 118.546 9.41911 118.135 9.69519V16.207C118.135 17.9126 118.191 18.7179 118.414 19.0503C118.779 19.5915 119.875 19.6342 120.2 19.6342H120.471V20.3499L120.186 20.3337C118.763 20.2599 117.7 20.2268 116.935 20.2268C115.974 20.2268 114.884 20.2268 113.727 20.3337L113.426 20.3632ZM127.035 13.9282C127.035 10.3842 128.267 8.66115 130.789 8.66115C132.378 8.66115 133.162 9.31625 133.374 9.52528V18.1781C132.631 18.6377 131.779 18.7047 131.323 18.7047H131.202C127.443 18.7047 127.035 15.3642 127.035 13.9282ZM133.431 20.4278L133.777 20.5431L133.895 20.4918C134.123 20.3876 134.588 20.2965 135.216 20.1945C136.309 20.007 137.439 19.9281 137.729 19.9281H138V19.234L137.756 19.2245L137.648 19.2166C137.343 19.1923 136.779 19.128 136.51 18.7434C136.282 18.43 136.26 17.4561 136.26 15.8815V5.3476C136.26 3.64191 136.274 1.36551 136.36 0.300358L136.37 0.17458L136.148 0.041748L136.019 0.0900536C135.756 0.186657 135.251 0.300358 134.741 0.383492C133.524 0.621834 132.029 0.745228 131.967 0.745228H131.693L131.637 1.32543L131.881 1.34958L131.986 1.35769C132.292 1.38026 132.859 1.42327 133.122 1.79962C133.353 2.14676 133.374 3.00439 133.374 4.61483V7.36132C132.818 7.24223 131.887 7.11354 130.845 7.11354C128.007 7.11354 125.752 8.4576 124.67 10.8021C124.211 11.8151 123.961 13.0171 123.961 14.2805C123.961 18.091 126.259 20.5509 129.814 20.5509C131.516 20.5509 132.789 19.8142 133.431 19.3397V20.4278ZM63.8129 25.9912H57.3171V36.7527H63.9781V35.1411H59.2298V31.9642H63.104V30.3521H59.2298V27.6031H63.8129V25.9912ZM73.0692 35.2053C75.2451 35.2053 76.4825 33.9726 76.4825 31.3225C76.4825 28.6895 75.2451 27.5386 73.0692 27.5386H72.2283V35.2053H73.0692ZM70.3156 25.9912H73.2019C76.4988 25.9912 78.444 27.7692 78.444 31.3225C78.444 34.893 76.4988 36.7527 73.2998 36.7527H70.3156V25.9912ZM86.6621 25.9912H84.749V36.7527H86.6621V25.9912ZM109.063 25.9912H107.15V36.7527H109.063V25.9912ZM115.927 25.9912H117.889L121.252 32.046L122.357 34.3345H122.422C122.399 34.0223 122.369 33.689 122.338 33.3444C122.26 32.4717 122.175 31.5262 122.175 30.6644V25.9912H124.005V36.7527H122.044L118.68 30.6978L117.575 28.4097H117.509C117.534 28.7515 117.567 29.108 117.6 29.4721C117.677 30.3187 117.758 31.2065 117.758 32.046V36.7527H115.927V25.9912ZM137.366 25.9912H130.87V36.7527H137.531V35.1411H132.783V31.9642H136.657V30.3521H132.783V27.6031H137.366V25.9912Z" fill="#59667F"/>
<path d="M20.349 7.40625L20.506 7.39285L20.4323 7.25089L20.2722 7.26621L20.349 7.40625Z" fill="url(#paint1_linear_20_2964)"/>
<path d="M20.6866 6.67886L20.8429 6.70361L20.8066 6.55089L20.6506 6.52674L20.6866 6.67886" fill="url(#paint2_linear_20_2964)"/>
<path d="M22.2005 7.76728L22.4902 7.91676L23.1347 8.08643L23.1334 7.02505L21.8704 6.28003L21.871 7.0218C22.081 7.27846 22.2387 7.5544 22.2005 7.76728" fill="#59667F"/>
<path d="M23.9742 25.1739C23.985 24.9594 23.6167 24.7037 23.1038 24.4434C23.1044 24.8536 23.1066 25.2744 23.1083 25.7056C23.8379 25.4793 23.9696 25.2781 23.9742 25.1739" fill="#59667F"/>
<path d="M20.8108 21.8195C20.8513 22.146 21.3425 22.4641 22.0747 22.8059C22.0438 21.9308 22.0077 21.1502 21.9685 20.4611C21.1257 21.0887 20.7732 21.5022 20.8108 21.8195Z" fill="#59667F"/>
<path d="M22.8642 27.2649C22.8629 27.0747 22.8615 26.8912 22.8608 26.7052L22.8488 26.7077V25.7832L22.8554 25.782C22.8526 25.2793 22.8509 24.7919 22.8488 24.3202C22.6956 24.249 22.5375 24.1783 22.3716 24.1082C22.3945 24.9499 22.414 25.865 22.4294 26.8684C22.4903 27.064 22.7339 27.2115 22.8642 27.2649Z" fill="#59667F"/>
<path d="M20.3083 7.75951C19.8432 7.60739 19.7865 7.37373 19.7478 7.2197L19.6424 7.09026L19.5102 7.07611C19.2826 7.07611 18.8577 7.17532 18.7162 7.54192C18.5616 7.94185 18.6638 8.93992 21.0841 11.1292C21.2754 11.3028 21.4406 11.4562 21.6205 11.6211L21.6157 8.06373C21.3083 8.04902 20.8802 7.94905 20.3083 7.75951" fill="#59667F"/>
<path d="M20.4307 7.49121L20.5651 7.41868L20.4616 7.19373L20.2156 7.23532L20.2068 7.33778L20.3184 7.46291L20.4307 7.49121Z" fill="#59667F"/>
<path d="M20.7891 6.78931L20.89 6.74787L20.9235 6.64794L20.8503 6.50466L20.6056 6.48047L20.5693 6.57704L20.6419 6.72519L20.7891 6.78931" fill="#59667F"/>
<path d="M22.8611 28.9293V28.4636C22.8659 28.1101 22.7121 28.0537 22.4438 27.9923C22.4471 28.3147 22.4505 28.6428 22.4533 28.9801L22.4545 29.0151L22.6837 29.1755C22.7207 29.1755 22.8424 29.1635 22.8766 29.0121L22.8752 28.9253L22.8611 28.9293" fill="#59667F"/>
<path d="M23.124 18.5662C24.0288 18.1503 24.5275 17.6979 24.612 17.1849C24.7268 16.4834 24.0878 15.7017 23.2233 14.8728C23.1757 15.8892 23.1434 17.1016 23.124 18.5662Z" fill="#59667F"/>
<path d="M25.9443 17.362C25.8048 18.3636 24.7128 19.108 23.1105 19.9103C23.1024 20.9189 23.0999 22.0234 23.1014 23.2479L23.3682 23.3567C24.8618 23.9611 25.1129 24.6468 25.0604 25.1131C24.9746 25.8942 24.0147 26.4757 23.1133 26.6567C23.1152 26.9083 23.1167 27.1576 23.1179 27.4176C23.3851 27.6174 23.5469 27.9134 23.5348 28.2189C23.524 28.4868 23.3704 28.7023 23.1281 28.8217L23.1294 29.0388C23.0785 29.2842 22.9005 29.4329 22.6837 29.4329C22.4818 29.4329 22.3038 29.3071 22.2205 29.1125L21.9952 29.1862C21.8052 29.2641 21.7038 29.2934 21.6326 29.2934L21.4762 29.201L21.6017 28.8793C21.785 28.6744 21.8943 28.6047 22.191 28.4639C22.1889 28.2859 22.1878 28.101 22.1857 27.9266L21.9052 27.806C21.3936 27.4792 21.1748 27.1336 21.2541 26.7746C21.3527 26.3243 21.9132 26.031 22.1562 25.941C22.1442 25.2497 22.1291 24.6041 22.1126 23.9982C21.7975 23.8697 21.479 23.7451 21.1869 23.6312C19.8303 23.1035 19.5686 22.3362 19.5849 21.7856C19.6198 20.5972 20.9132 19.4458 21.8757 19.0931C21.6097 15.7716 21.2191 15.1365 20.825 14.892L20.7305 14.833L21.1748 13.8094L21.6231 14.1135L21.6225 13.4182C21.3393 13.1602 21.0601 12.9002 20.801 12.6383C20.4418 12.2706 18.8854 10.6334 18.7094 10.3906C18.4049 9.97816 17.9974 9.35699 17.7785 8.74743C17.5134 7.99509 17.5719 7.21383 17.9303 6.70749C18.3134 6.16884 19.0048 5.97072 19.8989 6.15144C20.1028 6.23857 20.1988 6.20835 20.3384 6.17223L20.6211 6.12729C20.801 6.12729 20.9788 6.19567 21.1795 6.34352C21.248 6.39469 21.4258 6.54386 21.6144 6.73488L21.6132 5.83042L23.389 6.87832L23.3918 8.39573C23.61 8.0981 23.9361 7.76127 24.2873 7.70308L24.4146 7.68153L24.6605 9.29004L24.6047 9.33635C23.9463 9.88439 23.5469 10.609 23.3267 13.2264C25.2202 15.0902 26.0867 16.3215 25.9443 17.362V17.362ZM29.4582 1.85852H15.6648V37.8743C16.6872 37.3084 17.6376 36.7136 18.5342 36.0945C35.1326 24.6615 30.7696 4.91678 29.4582 1.85852Z" fill="#59667F"/>
<path d="M24.3857 9.1877L24.2039 7.99313C23.8636 8.14377 23.5097 8.63287 23.3789 8.89702L23.1354 8.84071L23.1346 8.22898L22.8332 8.28984L22.8574 8.67562L22.7394 8.71204L22.3587 8.10633L22.0667 7.96381L21.8728 8.05267L21.8775 11.8568C22.3144 12.2599 22.7198 12.6411 23.0863 12.9961C23.3126 10.5027 23.718 9.7617 24.3857 9.1877" fill="#59667F"/>
<path d="M21.88 13.6499L21.8808 14.5979L21.2866 14.1953L21.0537 14.7326C21.5392 15.0601 22.0887 15.8259 22.3352 22.925C22.4969 22.996 22.6662 23.0699 22.8452 23.1436C22.8399 19.312 22.8775 16.5983 22.9748 14.6401C22.7278 14.4116 22.4721 14.1806 22.2088 13.9462L21.88 13.6499" fill="#59667F"/>
<path d="M2.72014 11.8918C2.58235 11.8896 2.46361 11.8918 2.32212 11.7142C2.17029 11.5205 2.02394 11.0979 2.27959 10.9645C2.43687 10.8286 2.80329 11.0281 2.92336 11.2479C3.03486 11.4496 2.99514 11.5687 2.95423 11.7108C3.08375 11.9132 3.22937 12.1126 3.35963 12.2931C3.26895 11.7121 3.43466 11.2325 3.58663 10.8909C4.10546 11.6123 4.00871 12.2354 3.7194 12.6803C3.93562 12.9461 4.11608 13.1458 4.33155 13.3635C4.27117 12.957 4.31885 12.342 4.46849 11.9975C4.95365 12.666 5.01966 13.351 4.79811 13.801C5.00208 13.9719 5.19331 14.1354 5.39389 14.2627C5.28402 13.88 5.23422 13.245 5.33509 12.8797C5.88331 13.4366 6.05243 14.0656 5.9257 14.5413C6.15863 14.6477 6.38473 14.7396 6.6191 14.7938C6.50836 14.5674 6.40023 14.1796 6.41974 13.9322C6.83177 14.1956 6.93518 14.4978 6.91907 14.818L7.22036 14.905L7.20634 13.9846C6.80092 13.88 6.19009 13.6469 5.99084 12.8657C6.36994 12.9555 6.85321 13.0453 7.20634 13.3581V12.8706C6.38605 12.8041 5.56047 12.2227 5.15301 11.065C5.86384 11.189 6.54983 11.5258 7.20634 11.9533V11.5258C6.49017 11.4743 5.81363 10.811 5.51336 9.86998C6.10619 9.98021 6.65649 10.2478 7.20634 10.6383V10.1002C6.53581 10.0273 5.84566 9.45707 5.51336 8.41253C6.10619 8.52385 6.65649 8.77857 7.20634 9.16903V8.56484C6.51365 8.51721 5.85836 8.13143 5.51336 7.05757C6.10619 7.16814 6.65649 7.47901 7.20634 7.86966V7.19746C6.66137 7.13512 6.14593 6.80093 5.87345 5.74257C6.34854 5.8528 6.76723 6.05537 7.20634 6.44715V5.74963C6.78614 5.67476 6.39758 5.50861 6.1874 4.68931C6.47335 4.75433 6.821 4.77041 7.20883 5.11683L7.20101 4.69788C6.88406 4.22572 6.9554 4.01731 6.99291 3.6436C7.02777 3.30386 7.15462 3.05194 7.52177 3.03469C7.8876 3.05194 8.01449 3.30386 8.05199 3.6436C8.09158 4.01731 8.15952 4.22572 7.84272 4.69788L7.84949 5.12815C8.13646 4.89554 8.55412 4.71143 8.88835 4.64452C8.70449 5.4697 8.29775 5.67948 7.85335 5.75389L7.838 6.44907C8.19907 6.15986 8.74332 5.76997 9.1589 5.68476C8.92321 6.73609 8.4159 7.11859 7.85335 7.19746V7.88143C8.30304 7.59207 9.00975 7.08501 9.53063 7.00066C9.23335 8.06438 8.57227 8.48653 7.85675 8.55216L7.85864 9.18262C8.3072 8.89295 9.00975 8.43895 9.53063 8.35713C9.24473 9.38469 8.54879 10.0091 7.86015 10.1045V10.6383C8.31117 10.3502 9.00975 9.8953 9.53063 9.81217C9.25815 10.8909 8.57095 11.4723 7.85335 11.5345V11.9707C8.39314 11.6505 9.27838 11.0965 9.90044 11.0047C9.54496 12.161 8.70713 12.7895 7.85335 12.8691V13.3683C8.14326 13.137 8.75144 12.8865 9.08431 12.8215C8.9071 13.6087 8.27143 13.88 7.84949 13.9846L7.84802 14.9178L8.14666 14.8857C8.1171 14.5621 8.3072 14.2284 8.72929 13.9604C8.74744 14.2091 8.60581 14.572 8.52384 14.8152C8.75144 14.7637 8.97712 14.7014 9.20174 14.6063C9.08049 14.134 9.23864 13.4847 9.78187 12.9361C9.88316 13.3019 9.78716 13.8982 9.73949 14.2934C9.97843 14.1473 10.2201 13.9893 10.4535 13.7869C10.1913 13.3387 10.2401 12.6414 10.7464 11.9434C10.8966 12.2863 10.9033 12.9489 10.9081 13.3482C11.1142 13.1292 11.3363 12.8833 11.5328 12.6172C11.1751 12.1817 11.1623 11.7616 11.5899 10.9143C11.7389 11.2572 11.874 11.7718 11.8793 12.1723C12.0645 11.934 12.1961 11.7356 12.3537 11.4496C12.2598 11.2305 12.3033 11.0644 12.4169 10.9217C12.5748 10.7246 12.8109 10.5558 13.023 10.6853C13.3169 10.8185 13.1687 11.1421 13.066 11.3791C12.9929 11.5466 12.8672 11.6598 12.6472 11.6531C12.4953 11.9238 12.2819 12.2186 12.0967 12.4537C12.5249 12.5892 12.8289 12.6888 13.1177 12.9836C12.4839 13.245 12.1053 13.1832 11.7921 12.9215C11.5874 13.1919 11.2878 13.4875 11.0739 13.7114C11.4908 13.8385 11.7644 13.9551 12.1042 14.3003C11.4141 14.5856 10.9033 14.4963 10.5966 14.1707C10.3562 14.3764 10.1261 14.5895 9.87828 14.7349C10.2865 14.9425 10.5832 15.1629 10.8294 15.5014C10.0449 15.6815 9.52606 15.4583 9.29713 15.0183C9.06291 15.1121 8.84627 15.1911 8.61114 15.2366C8.83474 15.4275 8.98699 15.5749 9.10041 15.8275C8.5615 15.8136 8.25461 15.6876 8.17574 15.3566L7.84949 15.4384V16.4895L7.18668 16.1954V15.425L6.89839 15.3531C6.803 15.6669 6.56685 15.7879 6.04918 15.7981C6.16128 15.5427 6.22359 15.3619 6.4862 15.2279C6.2465 15.1662 6.0223 15.051 5.78732 14.9425C5.58191 15.4324 5.11683 15.6352 4.2886 15.4456C4.53095 15.1068 4.83829 14.8012 5.25313 14.6598C5.04091 14.5264 4.84495 14.3958 4.63564 14.1943C4.33409 14.5326 3.81789 14.6477 3.11329 14.355C3.40128 14.0609 3.6878 13.8271 4.12701 13.7441C3.90666 13.5263 3.70271 13.2598 3.49181 12.9937C3.17842 13.2704 2.70183 13.3609 2.05554 13.0889C2.34546 12.7948 2.67628 12.4838 3.09113 12.4885C2.96427 12.3069 2.85158 12.1007 2.72014 11.8918V11.8918ZM0.454748 17.2859H15.2983V1.85883H1.50496C0.801078 3.4962 -0.774461 9.91802 0.454748 17.2859Z" fill="#59667F"/>
<path d="M8.43262 28.6101H9.38773V26.172H8.43262V28.6101Z" fill="white"/>
<path d="M10.1028 28.5835H12.5458V27.6295H10.1028V28.5835" fill="white"/>
<path d="M12.5731 24.4514H11.6167V26.8887H12.5731V24.4514" fill="white"/>
<path d="M9.06786 22.8865H8.32593V23.6287H9.06786V22.8865" fill="white"/>
<path d="M10.8475 24.4759H8.4043V25.4312H10.8475V24.4759Z" fill="white"/>
<path d="M10.1301 26.9165H10.8744V26.1717H10.1301V26.9165Z" fill="white"/>
<path d="M11.6167 20.3436L11.6192 23.6286H13.4201V29.4597H7.58121V26.1718H5.77856V20.3436H11.6167ZM12.4286 36.0945C13.3253 36.7136 14.2753 37.3084 15.2981 37.8743V36.0945V17.6534H0.520996C1.64785 23.953 4.86228 30.8841 12.4286 36.0945Z" fill="#59667F"/>
<path d="M7.58113 22.9926H6.62622V25.4312H7.58113V22.9926Z" fill="white"/>
<path d="M10.8473 21.0847H9.89087V23.5239H10.8473V21.0847Z" fill="white"/>
<path d="M9.09669 21.0851H6.65405V22.0415H9.09669V21.0851Z" fill="white"/>
<defs>
<linearGradient id="paint0_linear_20_2964" x1="0.436768" y1="20.1641" x2="27.5098" y2="20.1641" gradientUnits="userSpaceOnUse">
<stop stop-color="#939393"/>
<stop offset="1" stop-color="#2D2D2D"/>
</linearGradient>
<linearGradient id="paint1_linear_20_2964" x1="20.2722" y1="7.32857" x2="20.506" y2="7.32857" gradientUnits="userSpaceOnUse">
<stop stop-color="#939393"/>
<stop offset="1" stop-color="#2D2D2D"/>
</linearGradient>
<linearGradient id="paint2_linear_20_2964" x1="20.6506" y1="6.61518" x2="20.8429" y2="6.61518" gradientUnits="userSpaceOnUse">
<stop stop-color="#939393"/>
<stop offset="1" stop-color="#2D2D2D"/>
</linearGradient>
</defs>
</svg>
