<svg width="142" height="38" viewBox="0 0 142 38" fill="none" xmlns="http://www.w3.org/2000/svg">
<path d="M41.6053 20.6638C41.6053 22.3269 42.9053 22.975 44.3813 22.975C45.3474 22.975 46.8237 22.6946 46.8237 21.4163C46.8237 20.0681 44.9432 19.8409 43.0989 19.3503C41.236 18.8603 39.3568 18.1422 39.3568 15.7957C39.3568 13.2395 41.7815 12.0137 44.0477 12.0137C46.6647 12.0137 49.0725 13.152 49.0725 16.0413H46.4015C46.3138 14.5353 45.2424 14.1501 43.9244 14.1501C43.0459 14.1501 42.0269 14.5176 42.0269 15.5684C42.0269 16.5316 42.6247 16.6541 45.7696 17.4594C46.683 17.6869 49.4937 18.2647 49.4937 21.1015C49.4937 23.395 47.6838 25.1108 44.276 25.1108C41.5003 25.1108 38.8999 23.7452 38.9349 20.6638H41.6053" fill="#59667F"/>
<path d="M59.1199 24.8131H56.7478V23.5523H56.6955C56.0623 24.5681 54.9736 25.0581 53.9195 25.0581C51.2668 25.0581 50.5986 23.57 50.5986 21.3287V15.7607H53.094V20.8731C53.094 22.3616 53.5329 23.0973 54.692 23.0973C56.0453 23.0973 56.6245 22.3438 56.6245 20.5054V15.7607H59.1199V24.8131" fill="#59667F"/>
<path d="M71.5063 17.4238V15.7605H69.6791V13.0464H67.184V15.7605H63.9158V13.0464H61.4211V15.7605H59.9104V17.4238H61.4211V22.7642C61.4211 24.568 62.7561 24.9177 64.2844 24.9177C64.7763 24.9177 65.3215 24.9005 65.7427 24.8308V22.8871C65.4791 22.9396 65.2335 22.9573 64.9699 22.9573C64.1267 22.9573 63.9158 22.7467 63.9158 21.9065V17.4238H67.184V22.7642C67.184 24.568 68.5193 24.9177 70.048 24.9177C70.5395 24.9177 71.0844 24.9005 71.5063 24.8308V22.8871C71.2424 22.9396 70.9967 22.9573 70.7331 22.9573C69.8894 22.9573 69.6791 22.7467 69.6791 21.9065V17.4238H71.5063" fill="#59667F"/>
<path d="M78.5505 19.3147C78.3219 18.0541 77.7774 17.3887 76.565 17.3887C74.984 17.3887 74.5271 18.6147 74.4918 19.3147H78.5505ZM74.4918 20.8913C74.5625 22.4669 75.335 23.1847 76.723 23.1847C77.7247 23.1847 78.5325 22.5719 78.6915 22.0116H80.887C80.1841 24.1479 78.6915 25.0581 76.6356 25.0581C73.7716 25.0581 71.9971 23.0972 71.9971 20.2954C71.9971 17.5816 73.877 15.5154 76.6356 15.5154C79.7279 15.5154 81.2209 18.1066 81.0453 20.8913H74.4918Z" fill="#59667F"/>
<path d="M82.1003 15.7606H84.4721V17.4412H84.5077C84.9646 16.3031 86.1943 15.5153 87.4064 15.5153C87.582 15.5153 87.7926 15.5503 87.9509 15.6031V17.9143C87.7223 17.8615 87.3534 17.8265 87.0551 17.8265C85.2279 17.8265 84.5954 19.1396 84.5954 20.733V24.813H82.1003V15.7606Z" fill="#59667F"/>
<path d="M91.4468 12.3112H94.2048V17.109H99.2822V12.3112H102.04V24.813H99.2822V19.4199H94.2048V24.813H91.4468V12.3112Z" fill="#59667F"/>
<path d="M109.735 19.3147C109.506 18.0541 108.962 17.3887 107.75 17.3887C106.168 17.3887 105.712 18.6147 105.676 19.3147H109.735ZM105.676 20.8913C105.747 22.4669 106.52 23.1847 107.909 23.1847C108.91 23.1847 109.717 22.5719 109.876 22.0116H112.072C111.369 24.1479 109.876 25.0581 107.821 25.0581C104.957 25.0581 103.182 23.0972 103.182 20.2954C103.182 17.5816 105.062 15.5154 107.821 15.5154C110.912 15.5154 112.405 18.1066 112.23 20.8913H105.676" fill="#59667F"/>
<path d="M118.943 20.3829C118.52 20.7506 117.642 20.7687 116.868 20.9085C116.096 21.0656 115.393 21.3287 115.393 22.2387C115.393 23.1669 116.113 23.3947 116.921 23.3947C118.872 23.3947 118.943 21.8538 118.943 21.311V20.3829ZM113.18 18.5444C113.32 16.216 115.411 15.5154 117.449 15.5154C119.258 15.5154 121.437 15.9181 121.437 18.0894V22.7991C121.437 23.6225 121.525 24.445 121.753 24.8131H119.223C119.135 24.5329 119.065 24.235 119.048 23.9375C118.257 24.7604 117.097 25.0581 115.99 25.0581C114.269 25.0581 112.899 24.2 112.899 22.3437C112.899 20.2954 114.444 19.8054 115.99 19.5954C117.519 19.3675 118.943 19.42 118.943 18.405C118.943 17.3366 118.205 17.1787 117.326 17.1787C116.377 17.1787 115.762 17.564 115.674 18.5444H113.18Z" fill="#59667F"/>
<path d="M123.019 12.3112H125.514V24.813H123.019V12.3112Z" fill="#59667F"/>
<path d="M130.223 15.7605H132.05V17.4238H130.223V21.9065C130.223 22.7467 130.433 22.9573 131.276 22.9573C131.54 22.9573 131.786 22.9396 132.05 22.8871V24.8308C131.628 24.9005 131.083 24.9177 130.592 24.9177C129.063 24.9177 127.728 24.568 127.728 22.7642V17.4238H126.217V15.7605H127.728V13.0464H130.223V15.7605" fill="#59667F"/>
<path d="M132.823 12.3112H135.319V17.0212H135.371C136.004 16.0056 137.092 15.5153 138.024 15.5153C140.677 15.5153 141.345 17.0034 141.345 19.2449V24.813H138.849V19.6999C138.849 18.2118 138.411 17.4766 137.251 17.4766C135.898 17.4766 135.319 18.2293 135.319 20.0678V24.813H132.823V12.3112" fill="#59667F"/>
<path d="M8.0603 33.3494C8.33434 33.3494 8.60385 33.3407 8.60385 33.0336C8.60385 32.7819 8.39329 32.723 8.17406 32.723H7.76543V33.3494H8.0603ZM7.76543 34.34H7.54193V32.5344H8.23763C8.64626 32.5344 8.82722 32.7106 8.82722 33.0336C8.82722 33.3531 8.61717 33.4963 8.37222 33.5382L8.91176 34.34H8.65063L8.14057 33.5382H7.76543V34.34ZM6.78753 33.4369C6.78753 34.185 7.35217 34.7769 8.11109 34.7769C8.8695 34.7769 9.43427 34.185 9.43427 33.4369C9.43427 32.6894 8.8695 32.0969 8.11109 32.0969C7.35217 32.0969 6.78753 32.6894 6.78753 33.4369V33.4369ZM9.67883 33.4369C9.67883 34.315 8.99578 35 8.11109 35C7.22612 35 6.54297 34.315 6.54297 33.4369C6.54297 32.5594 7.22612 31.8744 8.11109 31.8744C8.99578 31.8744 9.67883 32.5594 9.67883 33.4369Z" fill="#59667F"/>
<path d="M21.9492 13.6658H32.6515V24.3325H28.4383C28.4486 24.195 28.4536 23.9868 28.4521 23.8468C28.4231 21.3239 26.3505 19.0945 24.1958 18.0221C22.6509 17.2533 21.33 16.6871 19.77 16.0315C18.2104 15.3765 16.8895 14.8096 15.3446 14.0409C13.1895 12.9683 11.1176 10.739 11.0882 8.21578C11.0628 6.03147 12.5377 4.21645 14.577 3.55725C15.9673 3.10893 17.4077 3.01102 18.8532 2.99982H21.9492V13.6658Z" fill="#59667F"/>
<path d="M11.2466 24.3335H0.543945V13.6668H4.75739C4.74699 13.8037 4.74211 14.0124 4.74362 14.1524C4.77283 16.6749 6.8454 18.9049 9.00009 19.9768C10.5449 20.7462 11.8655 21.3124 13.4258 21.9674C14.9853 22.6235 16.3063 23.1898 17.8512 23.9585C20.0059 25.0309 22.0782 27.2604 22.1077 29.7834C22.133 31.9679 20.6581 33.7834 18.6187 34.4423C17.2285 34.891 15.788 34.9884 14.3426 34.9998H11.2466V24.3335Z" fill="#59667F"/>
<rect x="4.65039" y="13.5952" width="0.26328" height="0.262396" fill="#59667F"/>
<path d="M22.6685 30.9123C22.9814 30.2773 23.153 29.5641 23.1448 28.8067C23.1156 26.2824 21.043 24.0535 18.8883 22.9805C17.3434 22.2124 16.0225 21.6463 14.4627 20.9901C12.9031 20.3351 11.5816 19.7688 10.0369 18.9994C7.88216 17.9276 5.8096 15.6988 5.781 13.1751C5.77801 12.9489 5.79243 12.7276 5.82026 12.5107L4.75732 13.6663C4.74692 13.8038 4.74165 14.0107 4.74354 14.152C4.77276 16.6751 6.84558 18.9044 8.99988 19.9763C10.5451 20.745 11.8651 21.3119 13.4257 21.9675C14.9857 22.623 16.3063 23.1887 17.8507 23.958C20.0058 25.0305 22.0784 27.2598 22.1074 29.7836C22.1214 30.9423 21.7121 31.9979 21.0208 32.8311L21.023 32.8279L22.6685 30.9123" fill="#59667F"/>
<path d="M28.4518 23.8475C28.4233 21.3245 26.3504 19.0945 24.195 18.0226C22.6505 17.2545 21.3299 16.6882 19.77 16.032C18.2104 15.3757 16.8894 14.8095 15.3442 14.0408C13.1892 12.9695 11.1169 10.7401 11.0878 8.21566C11.074 7.0707 11.4741 6.02687 12.1514 5.19807L12.1523 5.19647L10.4685 7.14814C10.1917 7.74942 10.0218 8.4659 10.0296 9.17373C10.0588 11.6976 12.1316 13.927 14.2859 14.9989C15.8308 15.767 17.1515 16.3339 18.7121 16.9895C20.2717 17.6451 21.5924 18.212 23.1375 18.9801C25.2922 20.0532 27.364 22.2818 27.3943 24.8049C27.3968 25.0356 27.3861 25.3118 27.3566 25.5381L28.4382 24.3331C28.4493 24.1962 28.4537 23.9881 28.4518 23.8475" fill="#59667F"/>
<path d="M10.0362 18.9997C11.5811 19.7685 12.9023 20.3353 14.4619 20.9897C16.0218 21.646 17.3429 22.2121 18.8877 22.9802C21.0424 24.0532 23.1149 26.282 23.144 28.8064C23.1522 29.5637 22.9807 30.277 22.6678 30.9126L23.504 29.9495C23.7295 29.3931 23.8499 28.7864 23.8434 28.1476C23.8139 25.6245 21.7416 23.3952 19.5866 22.3227C18.0417 21.5547 16.7213 20.9878 15.1608 20.3328C13.6015 19.676 12.2802 19.1098 10.7358 18.3416C8.58073 17.2698 6.50817 15.0404 6.4793 12.5173C6.47593 12.2273 6.49876 11.9467 6.54641 11.6742L5.81959 12.5111C5.79163 12.7273 5.77721 12.9492 5.78049 13.1754C5.80893 15.6985 7.8815 17.9279 10.0362 18.9997" fill="#59667F"/>
<path d="M11.812 17.3283C13.3563 18.0971 14.6778 18.6633 16.2372 19.3202C17.7973 19.9758 19.1174 20.5414 20.6628 21.3102C22.8173 22.3832 24.8898 24.6119 24.9196 27.135C24.9252 27.6288 24.8538 28.1038 24.7171 28.5513L25.4764 27.6763C25.5731 27.2931 25.6232 26.8925 25.6181 26.4769C25.589 23.9537 23.5165 21.7239 21.3614 20.6521C19.8162 19.8833 18.4959 19.3171 16.9364 18.6615C15.3761 18.0058 14.0557 17.439 12.5103 16.6708C10.356 15.5984 8.28304 13.3684 8.25395 10.8459C8.24894 10.3721 8.31502 9.91787 8.44107 9.49036L7.68353 10.3634C7.59614 10.7271 7.55061 11.109 7.55497 11.5053C7.58422 14.0278 9.65701 16.2571 11.812 17.3283" fill="#59667F"/>
<path d="M13.5861 15.658C15.1317 16.4261 16.4532 16.9936 18.0119 17.6486C19.5722 18.3042 20.8931 18.8698 22.4382 19.6392C24.5931 20.7117 26.6653 22.9409 26.6941 25.4632C26.6976 25.7702 26.6722 26.0696 26.6186 26.3596L27.3473 25.5202C27.3801 25.2878 27.396 25.049 27.3935 24.8052C27.3636 22.2822 25.2915 20.0535 23.1368 18.9811C21.5916 18.2123 20.271 17.6454 18.7114 16.9898C17.1509 16.3348 15.8303 15.768 14.2855 14.9992C12.131 13.928 10.0581 11.698 10.029 9.17411C10.0211 8.44291 10.1808 7.7594 10.4742 7.14917L9.6768 8.06692L9.6446 8.10436C9.43513 8.63684 9.32288 9.21859 9.33017 9.83298C9.35964 12.3555 11.4318 14.5861 13.5861 15.658" fill="#59667F"/>
</svg>
