<svg width="74" height="38" viewBox="0 0 74 38" fill="none" xmlns="http://www.w3.org/2000/svg">
<path d="M73 16.8548V12.5838H56.5024V28.3213C56.4136 26.4776 55.73 25.0471 54.4354 24.041C53.5402 23.3455 52.1962 22.7895 50.4028 22.3742L46.3108 21.4238C44.7318 21.0605 43.6994 20.744 43.2132 20.4737C42.7664 20.2346 42.4528 19.9224 42.2698 19.5388L42.2696 19.5394C42.2682 19.5366 42.2672 19.534 42.2658 19.5313V19.5311C42.1442 19.2687 42.0744 18.9627 42.0744 18.6338C42.0744 17.9302 42.3198 17.3317 42.8272 16.8613C42.8272 16.8608 42.8274 16.86 42.8274 16.86C42.8384 16.8493 42.8498 16.8395 42.8608 16.8296L42.861 16.8294C42.8614 16.8275 42.8618 16.8271 42.8624 16.8283C42.9732 16.729 43.0948 16.6352 43.2292 16.548C43.9968 16.0495 45.024 15.8003 46.3106 15.8003C47.4672 15.8003 48.4348 15.9928 49.2134 16.3766C50.3812 16.9584 51.008 17.9399 51.0946 19.3209H55.7768C55.6912 16.8805 54.7706 15.019 53.0144 13.7362C51.258 12.4537 49.1362 11.8124 46.6492 11.8124C43.6706 11.8124 41.4126 12.4927 39.8752 13.853C38.93 14.6897 38.2768 15.6581 37.9126 16.7574H37.9108C37.8326 16.9941 37.767 17.2403 37.7154 17.4889H37.715C37.145 20.1369 35.4134 21.9355 32.5186 21.9355C27.8834 21.9355 26.1424 18.052 26.1424 14.2003C26.1424 10.1556 27.8834 6.27297 32.5186 6.27297C35.0806 6.27297 37.3162 8.01978 37.6444 10.3173H42.6402C42.0154 4.97778 37.6774 2 32.5188 2C25.5922 2 21.3892 6.85773 21.014 13.2572V2.55069H15.8536V16.9196C15.8536 20.35 14.6708 21.9357 10.9902 21.9357C6.8164 21.9357 6.1592 19.4438 6.1592 16.9196V2.55069H1V16.9196C1 23.198 4.6798 26.2077 10.9902 26.2077C17.2678 26.2077 21.0138 23.1661 21.0138 16.9196V15.1181C21.389 21.3506 25.592 26.2079 32.5186 26.2079C35.3646 26.2079 37.7916 25.3039 39.5814 23.6932C39.6924 23.781 39.8062 23.8667 39.9262 23.9476C40.8544 24.5813 42.5586 25.168 45.0396 25.708L47.564 26.2534C49.0416 26.565 50.1206 26.9233 50.8016 27.3282C51.4816 27.7436 51.822 28.3307 51.822 29.0886C51.822 30.3871 51.1276 31.275 49.7386 31.7524C49.0064 32.0018 48.0532 32.1263 46.8796 32.1263C44.92 32.1263 43.5362 31.6538 42.7286 30.7086C42.2874 30.1894 41.991 29.4055 41.8404 28.3565H37.1898C37.1898 30.7454 38.069 32.6224 39.8276 33.9879C41.5866 35.3538 44.0008 36.0364 47.0708 36.0364C50.0766 36.0364 52.4028 35.3432 54.0498 33.9566C55.5644 32.6815 56.3806 31.1047 56.5024 29.2277V35.6914H61.6622V26.1435H71.488V22.1953H61.6622V16.8548H73Z" fill="#59667F"/>
</svg>
