<svg width="290" height="40" viewBox="0 0 290 40" fill="none" xmlns="http://www.w3.org/2000/svg">
<path fill-rule="evenodd" clip-rule="evenodd" d="M0 20C0 8.95431 8.9543 0 20 0H255C266.024 0 274.965 8.91945 275 19.9355C277.963 21.4082 280 24.4662 280 28C280 32.9706 275.971 37 271 37C269.543 37 268.167 36.6538 266.95 36.0392C263.616 38.5271 259.48 40 255 40H20C8.9543 40 0 31.0457 0 20ZM286 37C288.209 37 290 35.2091 290 33C290 30.7909 288.209 29 286 29C283.791 29 282 30.7909 282 33C282 35.2091 283.791 37 286 37Z" fill="url(#paint0_linear_9_2844)"/>
<defs>
<linearGradient id="paint0_linear_9_2844" x1="1" y1="20" x2="289" y2="20" gradientUnits="userSpaceOnUse">
<stop stop-color="#F3E4FF"/>
<stop offset="1" stop-color="#FFF2DB"/>
</linearGradient>
</defs>
</svg>
